<?xml version="1.0" standalone="no"?>
<!DOCTYPE svg PUBLIC "-//W3C//DTD SVG 20010904//EN"
 "http://www.w3.org/TR/2001/REC-SVG-20010904/DTD/svg10.dtd">
<svg version="1.0" xmlns="http://www.w3.org/2000/svg"
 width="700.000000pt" height="700.000000pt" viewBox="0 0 700.000000 700.000000"
 preserveAspectRatio="xMidYMid meet">
<metadata>
Created by potrace 1.11, written by Peter Selinger 2001-2013
</metadata>
<g transform="translate(0.000000,700.000000) scale(0.100000,-0.100000)"
fill="#000000" stroke="none">
<path d="M3307 6594 c-1 -1 -24 -4 -52 -7 -27 -3 -97 -13 -155 -21 -93 -14
-131 -21 -245 -42 -55 -10 -249 -63 -340 -93 -261 -86 -502 -205 -760 -376
-49 -33 -95 -64 -101 -70 -16 -14 -39 -32 -117 -93 -161 -126 -374 -347 -507
-527 -25 -33 -48 -62 -51 -65 -7 -6 -121 -182 -165 -255 -37 -61 -145 -277
-163 -325 -7 -19 -21 -53 -31 -75 -62 -140 -139 -426 -170 -630 -11 -77 -23
-151 -25 -165 -17 -107 -20 -161 -20 -350 0 -193 7 -324 19 -362 3 -7 7 -35
10 -63 42 -356 186 -785 374 -1107 58 -100 211 -330 231 -348 4 -3 19 -23 36
-45 78 -105 255 -291 389 -408 403 -351 907 -602 1411 -701 252 -49 364 -60
620 -60 132 -1 263 3 290 7 28 4 68 10 90 13 116 17 147 22 240 40 679 131
1328 522 1776 1069 293 357 513 793 608 1200 21 92 52 268 71 410 6 44 14 91
17 105 8 38 10 425 2 489 -7 59 -14 106 -30 211 -6 36 -13 83 -16 105 -11 80
-85 359 -127 478 -235 660 -682 1218 -1274 1589 -127 80 -427 233 -512 262
-25 8 -76 27 -115 41 -180 68 -431 123 -730 161 -45 5 -472 13 -478 8z m1485
-1717 c45 -19 85 -77 96 -137 13 -76 8 -1811 -6 -1837 -7 -12 -12 -30 -12 -41
0 -43 -73 -165 -139 -230 -186 -187 -486 -252 -736 -159 -150 56 -279 189
-311 322 -24 100 -3 234 52 335 75 138 252 259 445 304 61 15 221 15 295 1
l41 -7 0 521 c0 498 0 521 -18 521 -10 0 -82 -13 -161 -30 -79 -16 -154 -31
-168 -34 -14 -3 -56 -12 -95 -21 -38 -9 -81 -18 -95 -20 -14 -3 -36 -8 -50
-11 -14 -3 -36 -8 -50 -11 -14 -2 -63 -13 -110 -23 -47 -10 -96 -21 -110 -24
-200 -38 -298 -61 -310 -73 -13 -12 -15 -115 -16 -806 0 -713 -2 -798 -17
-856 -75 -280 -350 -467 -672 -457 -309 10 -550 230 -532 486 9 130 57 227
168 338 87 87 219 159 323 177 14 3 38 7 54 10 51 11 181 6 280 -10 17 -3 22
1 24 18 0 12 2 302 3 644 2 672 4 688 55 742 28 29 111 66 172 76 18 3 40 8
48 10 8 2 29 7 45 10 43 7 288 59 405 84 39 9 591 126 645 137 49 10 177 36
198 40 12 3 47 11 77 18 67 16 133 13 182 -7z"/>
</g>
</svg>
